<svg width="64" height="64" viewBox="0 0 64 64" fill="none" xmlns="http://www.w3.org/2000/svg">
<rect x="0.5" y="0.5" width="63" height="63" rx="31.5" fill="url(#paint0_linear_14_54507)"/>
<rect x="0.5" y="0.5" width="63" height="63" rx="31.5" stroke="url(#paint1_linear_14_54507)"/>
<path d="M27.5889 41.6206C36.5357 41.6206 41.4294 34.208 41.4294 27.7801C41.4294 27.5696 41.4294 27.3599 41.4151 27.1513C42.3672 26.4626 43.1889 25.6101 43.8419 24.6333C42.9541 25.0266 42.0123 25.2848 41.0479 25.3986C42.0635 24.7906 42.8235 23.8346 43.1865 22.7081C42.2315 23.2748 41.187 23.6741 40.0977 23.8888C38.2555 21.9299 35.174 21.8353 33.2151 23.6776C31.9517 24.8657 31.4158 26.636 31.8078 28.3254C27.8971 28.1291 24.253 26.2819 21.783 23.2429C20.4919 25.4655 21.1513 28.3091 23.2891 29.7364C22.5148 29.7134 21.7577 29.5045 21.0812 29.1276C21.0812 29.1476 21.0812 29.1684 21.0812 29.1892C21.0817 31.5048 22.714 33.499 24.9838 33.9577C24.2677 34.1529 23.5161 34.1816 22.7872 34.0412C23.4245 36.0228 25.2506 37.3803 27.3318 37.4193C25.6092 38.7731 23.4814 39.5078 21.2906 39.5057C20.9036 39.5049 20.5172 39.4814 20.1328 39.4353C22.3573 40.8629 24.9458 41.62 27.5889 41.6166" fill="white"/>
<defs>
<linearGradient id="paint0_linear_14_54507" x1="32" y1="0" x2="32" y2="64" gradientUnits="userSpaceOnUse">
<stop stop-color="#1A1A1A"/>
<stop offset="1" stop-color="#1A1A1A" stop-opacity="0"/>
</linearGradient>
<linearGradient id="paint1_linear_14_54507" x1="32" y1="0" x2="32" y2="64" gradientUnits="userSpaceOnUse">
<stop stop-color="#262626"/>
<stop offset="1" stop-color="#262626" stop-opacity="0"/>
</linearGradient>
</defs>
</svg>
