<svg width="60" height="60" viewBox="0 0 60 60" fill="none" xmlns="http://www.w3.org/2000/svg">
<rect x="1" y="1" width="58" height="58" rx="29" fill="url(#paint0_linear_14_54785)"/>
<rect x="1" y="1" width="58" height="58" rx="29" stroke="url(#paint1_linear_14_54785)" stroke-width="2"/>
<g clip-path="url(#clip0_14_54785)">
<path d="M19.0075 18C26.0226 18 33.0226 18 40.0376 18C39.9624 18.9474 39.8872 19.8647 39.8045 20.7895C39.6917 22.1128 39.5714 23.4361 39.4511 24.7519C39.2632 26.8722 39.0677 28.9925 38.8797 31.1128C38.7368 32.7068 38.609 34.3083 38.4662 35.9023C38.3684 37.0602 38.2632 38.2256 38.1429 39.3835C38.1278 39.5038 37.985 39.6767 37.8722 39.7068C35.1805 40.4737 32.4812 41.2256 29.782 41.9699C29.594 42.0226 29.3609 42.0075 29.1654 41.9549C26.5188 41.2105 23.8722 40.4662 21.218 39.7293C20.985 39.6692 20.8872 39.5789 20.8647 39.3308C20.6692 36.985 20.4662 34.6391 20.2556 32.2932C20 29.3158 19.7218 26.3383 19.4511 23.3609C19.2932 21.6241 19.1504 19.8947 19 18.1579C19 18.1128 19.0075 18.0602 19.0075 18ZM23.7218 31.6992C23.7218 31.8421 23.7143 31.9699 23.7218 32.0902C23.8271 33.2481 23.9398 34.406 24.0301 35.5714C24.0526 35.8571 24.1429 35.9774 24.4211 36.0526C26.0601 36.4887 27.6992 36.9474 29.3383 37.3985C29.4286 37.4211 29.5338 37.4511 29.6241 37.4286C31.3383 36.9624 33.0451 36.4887 34.7519 36.0075C34.8496 35.9774 34.9774 35.8421 34.985 35.7444C35.1504 34.0376 35.3083 32.3308 35.4586 30.6241C35.6015 29.0301 35.7368 27.4286 35.8797 25.8346C35.9774 24.7143 36.0752 23.594 36.1805 22.4586C31.7293 22.4586 27.3083 22.4586 22.8647 22.4586C22.9173 23.2857 22.9699 24.0902 23.0301 24.9323C26.4737 24.9323 29.8797 24.9323 33.3158 24.9323C33.2481 25.8346 33.1805 26.7068 33.1203 27.609C29.8346 27.6541 26.5865 27.6917 23.3008 27.7368C23.391 28.594 23.4812 29.406 23.5714 30.2556C26.6992 30.2556 29.782 30.2556 32.9023 30.2556C32.7744 31.4211 32.6617 32.5564 32.5188 33.6842C32.5038 33.7895 32.3684 33.9398 32.2556 33.9699C31.6466 34.1579 31.015 34.2782 30.4135 34.4887C29.782 34.7068 29.1805 34.6767 28.5564 34.4737C28.015 34.2932 27.4511 34.1429 26.8947 34.0226C26.6241 33.9624 26.5338 33.8346 26.5188 33.5714C26.4812 32.9624 26.4135 32.3534 26.3609 31.7368C25.4511 31.6992 24.594 31.6992 23.7218 31.6992Z" fill="white"/>
</g>
<defs>
<linearGradient id="paint0_linear_14_54785" x1="30" y1="2" x2="30" y2="58" gradientUnits="userSpaceOnUse">
<stop stop-color="#1A1A1A"/>
<stop offset="1" stop-color="#1A1A1A" stop-opacity="0"/>
</linearGradient>
<linearGradient id="paint1_linear_14_54785" x1="30" y1="2" x2="30" y2="58" gradientUnits="userSpaceOnUse">
<stop stop-color="#333333"/>
<stop offset="0.84964" stop-color="#333333" stop-opacity="0"/>
</linearGradient>
<clipPath id="clip0_14_54785">
<rect width="21.0451" height="24" fill="white" transform="translate(19 18)"/>
</clipPath>
</defs>
</svg>
