<svg width="60" height="60" viewBox="0 0 60 60" fill="none" xmlns="http://www.w3.org/2000/svg">
<rect x="1" y="1" width="58" height="58" rx="29" fill="url(#paint0_linear_14_54789)"/>
<rect x="1" y="1" width="58" height="58" rx="29" stroke="url(#paint1_linear_14_54789)" stroke-width="2"/>
<g clip-path="url(#clip0_14_54789)">
<path d="M17 18C25.0451 18 33.0451 18 41.0677 18C40.9925 18.9173 40.9173 19.812 40.8346 20.7143C40.7218 22 40.6015 23.2782 40.4812 24.5639C40.2857 26.6466 40.0902 28.7293 39.9023 30.8045C39.7594 32.3609 39.6316 33.9248 39.4887 35.4812C39.3609 36.9023 39.2331 38.3233 39.1053 39.7444C39.0827 39.9624 39.0075 40.0526 38.7669 40.1053C35.6917 40.7143 32.6165 41.3383 29.5338 41.9474C29.2331 42.0075 28.9098 42.0226 28.609 41.9624C25.7895 41.406 22.9699 40.8346 20.1504 40.2632C19.8647 40.203 19.5865 40.1278 19.3008 40.1053C19.0376 40.0827 18.9624 39.9624 18.9398 39.7293C18.7895 37.9699 18.6391 36.2105 18.4812 34.4586C18.2632 32.0902 18.0376 29.7218 17.8195 27.3534C17.6541 25.2707 17.4812 23.1805 17.3008 21.1053C17.2105 20.0827 17.1053 19.0602 17 18ZM33.8496 31.0075C33.7218 32.3835 33.6015 33.6992 33.4737 35.0226C32.406 35.2331 31.3759 35.4361 30.3534 35.6541C30.2406 35.6767 30.0526 35.7744 30.0526 35.8496C30.0301 36.4662 30.0376 37.0902 30.0376 37.7519C31.8421 37.391 33.5865 37.0451 35.3383 36.6917C35.5714 34.1278 35.8045 31.594 36.0376 29C34.6767 29 33.3684 29 32.0752 29C32.0752 27.3008 32.0752 25.6541 32.0752 23.9774C33.5639 23.9774 35.0226 23.9774 36.5038 23.9774C36.5564 23.3008 36.609 22.6617 36.6692 22.0075C34.4361 22.0075 32.2556 22.0075 30.0752 22.0075C30.0752 25.015 30.0752 28 30.0752 31.0075C31.3308 31.0075 32.5714 31.0075 33.8496 31.0075ZM26.0226 22C26.0226 26.4511 26.0226 30.8571 26.0226 35.3008C25.5263 35.203 25.0677 35.1128 24.6015 35.0226C24.5338 34.3459 24.4737 33.6992 24.4135 33.0376C23.7444 33.0376 23.0977 33.0376 22.406 33.0376C22.5188 34.2632 22.6241 35.4662 22.7368 36.6917C24.4962 37.0451 26.2481 37.391 28.015 37.7444C28.015 32.4737 28.015 27.2406 28.015 22C27.3459 22 26.7143 22 26.0226 22Z" fill="white"/>
</g>
<defs>
<linearGradient id="paint0_linear_14_54789" x1="30" y1="2" x2="30" y2="58" gradientUnits="userSpaceOnUse">
<stop stop-color="#1A1A1A"/>
<stop offset="1" stop-color="#1A1A1A" stop-opacity="0"/>
</linearGradient>
<linearGradient id="paint1_linear_14_54789" x1="30" y1="2" x2="30" y2="58" gradientUnits="userSpaceOnUse">
<stop stop-color="#333333"/>
<stop offset="0.84964" stop-color="#333333" stop-opacity="0"/>
</linearGradient>
<clipPath id="clip0_14_54789">
<rect width="24.0677" height="24" fill="white" transform="translate(17 18)"/>
</clipPath>
</defs>
</svg>
