<svg width="20" height="20" viewBox="0 0 20 20" fill="none" xmlns="http://www.w3.org/2000/svg">
<path d="M18 11.8999V16.15C18 17.2444 17.2131 18.1859 16.1282 18.33C14.0415 18.607 11.9124 18.75 9.75 18.75C7.58757 18.75 5.45854 18.607 3.37185 18.33C2.2869 18.1859 1.5 17.2444 1.5 16.15V11.8999M18 11.8999C18.4719 11.4976 18.75 10.8889 18.75 10.2389V6.45569C18.75 5.37475 17.9821 4.44082 16.9131 4.28086C15.7877 4.11247 14.6495 3.98315 13.5 3.89432M18 11.8999C17.8064 12.065 17.5802 12.1953 17.3271 12.2794C14.9453 13.0712 12.3977 13.5 9.75002 13.5C7.10229 13.5 4.55469 13.0712 2.17289 12.2794C1.91984 12.1952 1.69361 12.0649 1.5 11.8999M1.5 11.8999C1.02808 11.4976 0.75 10.8889 0.75 10.2389V6.45569C0.75 5.37475 1.5179 4.44082 2.58694 4.28086C3.71233 4.11247 4.85049 3.98315 6 3.89432M13.5 3.89432V3C13.5 1.75736 12.4926 0.75 11.25 0.75H8.25C7.00736 0.75 6 1.75736 6 3V3.89432M13.5 3.89432C12.2626 3.7987 11.012 3.75 9.75 3.75C8.48804 3.75 7.23744 3.7987 6 3.89432M9.75 10.5H9.7575V10.5075H9.75V10.5Z" stroke="#A6A6A6" stroke-width="1.5" stroke-linecap="round" stroke-linejoin="round"/>
</svg>
