<svg width="60" height="60" viewBox="0 0 60 60" fill="none" xmlns="http://www.w3.org/2000/svg">
<rect x="1" y="1" width="58" height="58" rx="29" fill="url(#paint0_linear_14_54781)"/>
<rect x="1" y="1" width="58" height="58" rx="29" stroke="url(#paint1_linear_14_54781)" stroke-width="2"/>
<g clip-path="url(#clip0_14_54781)">
<path d="M19 18C26.1075 18 33.1623 18 40.2473 18C40.2172 18.534 40.1871 19.0379 40.1495 19.5494C39.9314 22.5729 39.7057 25.5964 39.4951 28.6199C39.3071 31.2824 39.1341 33.9448 38.9536 36.5998C38.9085 37.3143 38.8408 38.0213 38.8032 38.7358C38.7882 38.9765 38.6904 39.0743 38.4647 39.142C35.5992 40.0746 32.7487 41.0298 29.8831 41.9624C29.7327 42.015 29.5296 42.0075 29.3792 41.9624C26.5437 41.0373 23.7082 40.0971 20.8652 39.172C20.5719 39.0743 20.4817 38.9238 20.4591 38.6456C20.3688 37.2316 20.2636 35.8251 20.1658 34.4112C20.0003 32.0269 19.8348 29.6427 19.6619 27.251C19.5265 25.2654 19.3836 23.2798 19.2482 21.2943C19.1655 20.2112 19.0827 19.1282 19 18ZM23.6857 33.6139C23.6857 33.7568 23.6782 33.8772 23.6857 33.9975C23.7308 34.697 23.7985 35.3964 23.8211 36.0959C23.8286 36.3516 23.9188 36.4644 24.152 36.5396C25.9119 37.1188 27.6644 37.7054 29.4168 38.2845C29.5371 38.3222 29.6951 38.3372 29.8079 38.2996C31.5904 37.7129 33.3654 37.1112 35.1479 36.5321C35.366 36.4569 35.4262 36.3516 35.4412 36.1335C35.5992 33.8621 35.7722 31.5832 35.9376 29.3118C35.9677 28.8681 35.9828 28.4243 36.0053 27.9279C32.681 27.9279 29.3867 27.9279 26.0774 27.9279C25.9947 26.702 25.9119 25.5212 25.8292 24.3027C29.3341 24.3027 32.7863 24.3027 36.2761 24.3027C36.3438 23.3626 36.4039 22.46 36.4716 21.5425C31.8913 21.5425 27.356 21.5425 22.7982 21.5425C23.0163 24.6261 23.2344 27.6872 23.445 30.7709C26.6415 30.7709 29.7929 30.7709 32.9893 30.7709C32.9066 31.9141 32.8389 33.0197 32.7411 34.1254C32.7336 34.2382 32.5757 34.4036 32.4553 34.4412C31.6205 34.7346 30.7781 35.0204 29.9282 35.2761C29.7402 35.3363 29.5071 35.3287 29.319 35.2686C28.6346 35.0655 27.9727 34.7872 27.2883 34.6142C26.7468 34.4788 26.4083 34.2607 26.4535 33.659C26.4535 33.644 26.4234 33.6214 26.4083 33.5989C25.5133 33.6139 24.6108 33.6139 23.6857 33.6139Z" fill="white"/>
</g>
<defs>
<linearGradient id="paint0_linear_14_54781" x1="30" y1="2" x2="30" y2="58" gradientUnits="userSpaceOnUse">
<stop stop-color="#1A1A1A"/>
<stop offset="1" stop-color="#1A1A1A" stop-opacity="0"/>
</linearGradient>
<linearGradient id="paint1_linear_14_54781" x1="30" y1="2" x2="30" y2="58" gradientUnits="userSpaceOnUse">
<stop stop-color="#333333"/>
<stop offset="0.84964" stop-color="#333333" stop-opacity="0"/>
</linearGradient>
<clipPath id="clip0_14_54781">
<rect width="21.2473" height="24" fill="white" transform="translate(19 18)"/>
</clipPath>
</defs>
</svg>
