<svg width="60" height="60" viewBox="0 0 60 60" fill="none" xmlns="http://www.w3.org/2000/svg">
<rect x="1" y="1" width="58" height="58" rx="29" fill="url(#paint0_linear_14_54773)"/>
<rect x="1" y="1" width="58" height="58" rx="29" stroke="url(#paint1_linear_14_54773)" stroke-width="2"/>
<g clip-path="url(#clip0_14_54773)">
<path d="M30.4375 25.1803C30.4375 22.7775 30.4375 20.4314 30.4375 18.0948C30.4659 18.0664 30.4943 18.0286 30.5132 18.0286C31.847 18.038 33.1904 17.9813 34.5148 18.0853C36.1986 18.2272 37.4947 19.7314 37.5609 21.4531C37.6271 23.137 36.4446 24.7452 34.808 25.0384C34.0134 25.1803 33.1809 25.1425 32.3673 25.1614C31.743 25.1993 31.1186 25.1803 30.4375 25.1803Z" fill="white"/>
<path d="M29.1524 18.0185C29.1524 20.4213 29.1524 22.7674 29.1524 25.1892C28.9349 25.1892 28.7267 25.1892 28.5186 25.1892C27.5915 25.1892 26.655 25.1892 25.7279 25.1892C23.6467 25.1797 22.048 23.6472 22.0007 21.6417C21.9628 19.7307 23.4859 18.1225 25.5009 18.0279C26.6928 17.9712 27.8943 18.0185 29.1524 18.0185Z" fill="white"/>
<path d="M29.1409 26.4566C29.1409 28.85 29.1409 31.1866 29.1409 33.6557C27.599 33.58 26.057 33.6368 24.5718 33.3813C22.9446 33.0975 21.8946 31.461 22.0176 29.8244C22.15 27.9986 23.4082 26.6174 25.1488 26.4755C26.4638 26.3715 27.7882 26.4566 29.1409 26.4566Z" fill="white"/>
<path d="M29.2171 34.8298C29.1698 36.315 29.2265 37.7624 29.0468 39.1624C28.8292 40.8179 27.1832 42.0477 25.5277 41.991C23.7492 41.9342 22.2923 40.6382 22.0653 38.907C21.772 36.7312 23.4086 34.8392 25.6033 34.8203C26.7669 34.8298 27.9305 34.8298 29.2171 34.8298Z" fill="white"/>
<path d="M33.975 33.5815C32.0073 33.572 30.4086 31.9544 30.418 29.9867C30.4275 28.0285 32.0451 26.4203 34.0128 26.4297C35.9805 26.4392 37.5792 28.0568 37.5698 30.0245C37.5603 31.9922 35.9426 33.5909 33.975 33.5815Z" fill="white"/>
</g>
<defs>
<linearGradient id="paint0_linear_14_54773" x1="30" y1="2" x2="30" y2="58" gradientUnits="userSpaceOnUse">
<stop stop-color="#1A1A1A"/>
<stop offset="1" stop-color="#1A1A1A" stop-opacity="0"/>
</linearGradient>
<linearGradient id="paint1_linear_14_54773" x1="30" y1="2" x2="30" y2="58" gradientUnits="userSpaceOnUse">
<stop stop-color="#333333"/>
<stop offset="0.84964" stop-color="#333333" stop-opacity="0"/>
</linearGradient>
<clipPath id="clip0_14_54773">
<rect width="15.5711" height="24" fill="white" transform="translate(22 18)"/>
</clipPath>
</defs>
</svg>
