<svg width="24" height="20" viewBox="0 0 24 20" fill="none" xmlns="http://www.w3.org/2000/svg">
    <path d="M7.45607 19.2651C16.4029 19.2651 21.2966 11.8525 21.2966 5.42461C21.2966 5.21412 21.2966 5.00443 21.2823 4.79578C22.2344 4.10716 23.056 3.25467 23.7091 2.27785C22.8213 2.67116 21.8795 2.92933 20.9151 3.04313C21.9306 2.43512 22.6907 1.4791 23.0537 0.352646C22.0987 0.9193 21.0542 1.31867 19.9649 1.53337C18.1227 -0.425549 15.0412 -0.520123 13.0823 1.3221C11.8189 2.5102 11.283 4.2805 11.675 5.96992C7.76429 5.77366 4.12016 3.92644 1.65017 0.887424C0.359065 3.11005 1.01845 5.95359 3.15624 7.38089C2.382 7.35798 1.62488 7.14907 0.948375 6.77209C0.948375 6.79211 0.948375 6.81292 0.948375 6.83373C0.948902 9.14935 2.58116 11.1436 4.85094 11.6022C4.13491 11.7974 3.38333 11.8261 2.6544 11.6857C3.29165 13.6673 5.1178 15.0248 7.19896 15.0638C5.47634 16.4176 3.34855 17.1523 1.15781 17.1502C0.770818 17.1494 0.384355 17.126 0 17.0799C2.22447 18.5074 4.813 19.2646 7.45607 19.2611" fill="white"/>
</svg>
