<svg width="24" height="24" viewBox="0 0 24 24" fill="none" xmlns="http://www.w3.org/2000/svg">
    <path d="M0 1.69838C0 0.760544 0.784517 0 1.75212 0H21.9573C22.9249 0 23.7094 0.760544 23.7094 1.69838V22.011C23.7094 22.9491 22.9249 23.7094 21.9573 23.7094H1.75212C0.784517 23.7094 0 22.9491 0 22.011V1.69838Z" fill="white"/>
    <path d="M5.39666 7.67992C6.64535 7.67992 7.42275 6.85773 7.42275 5.83033C7.39957 4.77974 6.64561 3.98047 5.42037 3.98047C4.19538 3.98047 3.39453 4.77974 3.39453 5.83033C3.39453 6.85773 4.17167 7.67992 5.37347 7.67992H5.39666Z" fill="#0F0F0F"/>
    <path d="M7.18664 19.8467V9.14062H3.60547V19.8467H7.18664Z" fill="#0F0F0F"/>
    <path d="M9.16797 19.8478H12.7491V13.8691C12.7491 13.549 12.7723 13.2294 12.8669 13.0008C13.1259 12.3614 13.7149 11.6994 14.7044 11.6994C16.0002 11.6994 16.5187 12.6812 16.5187 14.1204V19.8478H20.0993V13.7092C20.0993 10.4207 18.3327 8.89062 15.9765 8.89062C14.0447 8.89062 13.1965 9.96361 12.7252 10.6944H12.7491V9.14168H9.16797C9.21486 10.1464 9.16797 19.8478 9.16797 19.8478Z" fill="#0F0F0F"/>
</svg>
