<svg width="167" height="167" viewBox="0 0 167 167" fill="none" xmlns="http://www.w3.org/2000/svg">
    <g filter="url(#filter0_i_14_61030)">
        <path d="M41.6667 83.3333L83.3333 41.6667L125 83.3333L83.3333 125L41.6667 83.3333Z" fill="white" fill-opacity="0.02"/>
        <path d="M41.6667 83.3333L83.3333 41.6667L125 83.3333L83.3333 125L41.6667 83.3333Z" fill="url(#paint0_linear_14_61030)" fill-opacity="0.2"/>
        <path d="M166.667 33.3333V83.3333L83.3333 0H133.333L166.667 33.3333Z" fill="white" fill-opacity="0.02"/>
        <path d="M166.667 33.3333V83.3333L83.3333 0H133.333L166.667 33.3333Z" fill="url(#paint1_linear_14_61030)" fill-opacity="0.2"/>
        <path d="M166.667 133.333V83.3333L83.3333 166.667H133.333L166.667 133.333Z" fill="white" fill-opacity="0.02"/>
        <path d="M166.667 133.333V83.3333L83.3333 166.667H133.333L166.667 133.333Z" fill="url(#paint2_linear_14_61030)" fill-opacity="0.2"/>
        <path d="M0 133.333V83.3333L83.3333 166.667H33.3333L0 133.333Z" fill="white" fill-opacity="0.02"/>
        <path d="M0 133.333V83.3333L83.3333 166.667H33.3333L0 133.333Z" fill="url(#paint3_linear_14_61030)" fill-opacity="0.2"/>
        <path d="M0 33.3333V83.3333L83.3333 0H33.3333L0 33.3333Z" fill="white" fill-opacity="0.02"/>
        <path d="M0 33.3333V83.3333L83.3333 0H33.3333L0 33.3333Z" fill="url(#paint4_linear_14_61030)" fill-opacity="0.2"/>
    </g>
    <defs>
        <filter id="filter0_i_14_61030" x="0" y="0" width="166.666" height="166.666" filterUnits="userSpaceOnUse" color-interpolation-filters="sRGB">
            <feFlood flood-opacity="0" result="BackgroundImageFix"/>
            <feBlend mode="normal" in="SourceGraphic" in2="BackgroundImageFix" result="shape"/>
            <feColorMatrix in="SourceAlpha" type="matrix" values="0 0 0 0 0 0 0 0 0 0 0 0 0 0 0 0 0 0 127 0" result="hardAlpha"/>
            <feOffset/>
            <feGaussianBlur stdDeviation="6"/>
            <feComposite in2="hardAlpha" operator="arithmetic" k2="-1" k3="1"/>
            <feColorMatrix type="matrix" values="0 0 0 0 1 0 0 0 0 1 0 0 0 0 1 0 0 0 0.2 0"/>
            <feBlend mode="normal" in2="shape" result="effect1_innerShadow_14_61030"/>
        </filter>
        <linearGradient id="paint0_linear_14_61030" x1="83.3333" y1="-80.1448" x2="83.3333" y2="166.667" gradientUnits="userSpaceOnUse">
            <stop stop-color="white"/>
            <stop offset="0.773658" stop-color="white" stop-opacity="0"/>
        </linearGradient>
        <linearGradient id="paint1_linear_14_61030" x1="83.3333" y1="-80.1448" x2="83.3333" y2="166.667" gradientUnits="userSpaceOnUse">
            <stop stop-color="white"/>
            <stop offset="0.773658" stop-color="white" stop-opacity="0"/>
        </linearGradient>
        <linearGradient id="paint2_linear_14_61030" x1="83.3333" y1="-80.1448" x2="83.3333" y2="166.667" gradientUnits="userSpaceOnUse">
            <stop stop-color="white"/>
            <stop offset="0.773658" stop-color="white" stop-opacity="0"/>
        </linearGradient>
        <linearGradient id="paint3_linear_14_61030" x1="83.3333" y1="-80.1448" x2="83.3333" y2="166.667" gradientUnits="userSpaceOnUse">
            <stop stop-color="white"/>
            <stop offset="0.773658" stop-color="white" stop-opacity="0"/>
        </linearGradient>
        <linearGradient id="paint4_linear_14_61030" x1="83.3333" y1="-80.1448" x2="83.3333" y2="166.667" gradientUnits="userSpaceOnUse">
            <stop stop-color="white"/>
            <stop offset="0.773658" stop-color="white" stop-opacity="0"/>
        </linearGradient>
    </defs>
</svg>
