<svg width="167" height="175" viewBox="0 0 167 175" fill="none" xmlns="http://www.w3.org/2000/svg">
    <g filter="url(#filter0_i_14_61069)">
        <path d="M83.3333 29.1667L100 58.3333H133.333L150 29.1667H116.667L100 0L83.3333 29.1667Z" fill="white" fill-opacity="0.02"/>
        <path d="M83.3333 29.1667L100 58.3333H133.333L150 29.1667H116.667L100 0L83.3333 29.1667Z" fill="url(#paint0_linear_14_61069)" fill-opacity="0.2"/>
        <path d="M133.333 116.667L116.667 87.5L133.333 58.3333H166.667L150 87.5L166.667 116.667H133.333Z" fill="white" fill-opacity="0.02"/>
        <path d="M133.333 116.667L116.667 87.5L133.333 58.3333H166.667L150 87.5L166.667 116.667H133.333Z" fill="url(#paint1_linear_14_61069)" fill-opacity="0.2"/>
        <path d="M83.3333 145.833L100 116.667H133.333L150 145.833H116.667L100 175L83.3333 145.833Z" fill="white" fill-opacity="0.02"/>
        <path d="M83.3333 145.833L100 116.667H133.333L150 145.833H116.667L100 175L83.3333 145.833Z" fill="url(#paint2_linear_14_61069)" fill-opacity="0.2"/>
        <path d="M83.3333 145.833L66.6667 116.667H33.3333L16.6667 145.833H50L66.6667 175L83.3333 145.833Z" fill="white" fill-opacity="0.02"/>
        <path d="M83.3333 145.833L66.6667 116.667H33.3333L16.6667 145.833H50L66.6667 175L83.3333 145.833Z" fill="url(#paint3_linear_14_61069)" fill-opacity="0.2"/>
        <path d="M33.3333 116.667L50 87.5L33.3333 58.3333H0L16.6667 87.5L0 116.667H33.3333Z" fill="white" fill-opacity="0.02"/>
        <path d="M33.3333 116.667L50 87.5L33.3333 58.3333H0L16.6667 87.5L0 116.667H33.3333Z" fill="url(#paint4_linear_14_61069)" fill-opacity="0.2"/>
        <path d="M83.3333 29.1667L66.6667 58.3333H33.3333L16.6667 29.1667H50L66.6667 0L83.3333 29.1667Z" fill="white" fill-opacity="0.02"/>
        <path d="M83.3333 29.1667L66.6667 58.3333H33.3333L16.6667 29.1667H50L66.6667 0L83.3333 29.1667Z" fill="url(#paint5_linear_14_61069)" fill-opacity="0.2"/>
    </g>
    <defs>
        <filter id="filter0_i_14_61069" x="0" y="0" width="166.666" height="175" filterUnits="userSpaceOnUse" color-interpolation-filters="sRGB">
            <feFlood flood-opacity="0" result="BackgroundImageFix"/>
            <feBlend mode="normal" in="SourceGraphic" in2="BackgroundImageFix" result="shape"/>
            <feColorMatrix in="SourceAlpha" type="matrix" values="0 0 0 0 0 0 0 0 0 0 0 0 0 0 0 0 0 0 127 0" result="hardAlpha"/>
            <feOffset/>
            <feGaussianBlur stdDeviation="6"/>
            <feComposite in2="hardAlpha" operator="arithmetic" k2="-1" k3="1"/>
            <feColorMatrix type="matrix" values="0 0 0 0 1 0 0 0 0 1 0 0 0 0 1 0 0 0 0.2 0"/>
            <feBlend mode="normal" in2="shape" result="effect1_innerShadow_14_61069"/>
        </filter>
        <linearGradient id="paint0_linear_14_61069" x1="83.3333" y1="-84.152" x2="83.3333" y2="175" gradientUnits="userSpaceOnUse">
            <stop stop-color="white"/>
            <stop offset="0.773658" stop-color="white" stop-opacity="0"/>
        </linearGradient>
        <linearGradient id="paint1_linear_14_61069" x1="83.3333" y1="-84.152" x2="83.3333" y2="175" gradientUnits="userSpaceOnUse">
            <stop stop-color="white"/>
            <stop offset="0.773658" stop-color="white" stop-opacity="0"/>
        </linearGradient>
        <linearGradient id="paint2_linear_14_61069" x1="83.3333" y1="-84.152" x2="83.3333" y2="175" gradientUnits="userSpaceOnUse">
            <stop stop-color="white"/>
            <stop offset="0.773658" stop-color="white" stop-opacity="0"/>
        </linearGradient>
        <linearGradient id="paint3_linear_14_61069" x1="83.3333" y1="-84.152" x2="83.3333" y2="175" gradientUnits="userSpaceOnUse">
            <stop stop-color="white"/>
            <stop offset="0.773658" stop-color="white" stop-opacity="0"/>
        </linearGradient>
        <linearGradient id="paint4_linear_14_61069" x1="83.3333" y1="-84.152" x2="83.3333" y2="175" gradientUnits="userSpaceOnUse">
            <stop stop-color="white"/>
            <stop offset="0.773658" stop-color="white" stop-opacity="0"/>
        </linearGradient>
        <linearGradient id="paint5_linear_14_61069" x1="83.3333" y1="-84.152" x2="83.3333" y2="175" gradientUnits="userSpaceOnUse">
            <stop stop-color="white"/>
            <stop offset="0.773658" stop-color="white" stop-opacity="0"/>
        </linearGradient>
    </defs>
</svg>
