<svg width="184" height="192" viewBox="0 0 184 192" fill="none" xmlns="http://www.w3.org/2000/svg">
    <g filter="url(#filter0_i_14_61088)">
        <path d="M91.6667 166.667L137.5 191.667L183.333 166.667V108.333L137.5 137.5L91.6667 108.333V166.667Z" fill="white" fill-opacity="0.02"/>
        <path d="M91.6667 166.667L137.5 191.667L183.333 166.667V108.333L137.5 137.5L91.6667 108.333V166.667Z" fill="url(#paint0_linear_14_61088)" fill-opacity="0.2"/>
        <path d="M0 108.333L45.8333 83.3333L91.6667 108.333L45.8333 137.5V191.667L0 166.667V108.333Z" fill="white" fill-opacity="0.02"/>
        <path d="M0 108.333L45.8333 83.3333L91.6667 108.333L45.8333 137.5V191.667L0 166.667V108.333Z" fill="url(#paint1_linear_14_61088)" fill-opacity="0.2"/>
        <path d="M137.5 83.3333L91.6667 108.333V54.1667L45.8333 25L91.6667 0L137.5 25V83.3333Z" fill="white" fill-opacity="0.02"/>
        <path d="M137.5 83.3333L91.6667 108.333V54.1667L45.8333 25L91.6667 0L137.5 25V83.3333Z" fill="url(#paint2_linear_14_61088)" fill-opacity="0.2"/>
    </g>
    <defs>
        <filter id="filter0_i_14_61088" x="0" y="0" width="183.334" height="191.666" filterUnits="userSpaceOnUse" color-interpolation-filters="sRGB">
            <feFlood flood-opacity="0" result="BackgroundImageFix"/>
            <feBlend mode="normal" in="SourceGraphic" in2="BackgroundImageFix" result="shape"/>
            <feColorMatrix in="SourceAlpha" type="matrix" values="0 0 0 0 0 0 0 0 0 0 0 0 0 0 0 0 0 0 127 0" result="hardAlpha"/>
            <feOffset/>
            <feGaussianBlur stdDeviation="6"/>
            <feComposite in2="hardAlpha" operator="arithmetic" k2="-1" k3="1"/>
            <feColorMatrix type="matrix" values="0 0 0 0 1 0 0 0 0 1 0 0 0 0 1 0 0 0 0.2 0"/>
            <feBlend mode="normal" in2="shape" result="effect1_innerShadow_14_61088"/>
        </filter>
        <linearGradient id="paint0_linear_14_61088" x1="91.6667" y1="-92.1665" x2="91.6667" y2="191.667" gradientUnits="userSpaceOnUse">
            <stop stop-color="white"/>
            <stop offset="0.773658" stop-color="white" stop-opacity="0"/>
        </linearGradient>
        <linearGradient id="paint1_linear_14_61088" x1="91.6667" y1="-92.1665" x2="91.6667" y2="191.667" gradientUnits="userSpaceOnUse">
            <stop stop-color="white"/>
            <stop offset="0.773658" stop-color="white" stop-opacity="0"/>
        </linearGradient>
        <linearGradient id="paint2_linear_14_61088" x1="91.6667" y1="-92.1665" x2="91.6667" y2="191.667" gradientUnits="userSpaceOnUse">
            <stop stop-color="white"/>
            <stop offset="0.773658" stop-color="white" stop-opacity="0"/>
        </linearGradient>
    </defs>
</svg>
