<svg width="167" height="167" viewBox="0 0 167 167" fill="none" xmlns="http://www.w3.org/2000/svg">
    <g filter="url(#filter0_i_14_61049)">
        <path d="M83.3333 83.3333H125L166.667 41.6667V0H125L83.3333 41.6667V83.3333Z" fill="white" fill-opacity="0.02"/>
        <path d="M83.3333 83.3333H125L166.667 41.6667V0H125L83.3333 41.6667V83.3333Z" fill="url(#paint0_linear_14_61049)" fill-opacity="0.2"/>
        <path d="M83.3333 166.667H125L166.667 125V83.3333H125L83.3333 125V166.667Z" fill="white" fill-opacity="0.02"/>
        <path d="M83.3333 166.667H125L166.667 125V83.3333H125L83.3333 125V166.667Z" fill="url(#paint1_linear_14_61049)" fill-opacity="0.2"/>
        <path d="M0 166.667H41.6667L83.3333 125V83.3333H41.6667L0 125V166.667Z" fill="white" fill-opacity="0.02"/>
        <path d="M0 166.667H41.6667L83.3333 125V83.3333H41.6667L0 125V166.667Z" fill="url(#paint2_linear_14_61049)" fill-opacity="0.2"/>
        <path d="M0 83.3333H41.6667L83.3333 41.6667V0H41.6667L0 41.6667V83.3333Z" fill="white" fill-opacity="0.02"/>
        <path d="M0 83.3333H41.6667L83.3333 41.6667V0H41.6667L0 41.6667V83.3333Z" fill="url(#paint3_linear_14_61049)" fill-opacity="0.2"/>
    </g>
    <defs>
        <filter id="filter0_i_14_61049" x="0" y="0" width="166.666" height="166.666" filterUnits="userSpaceOnUse" color-interpolation-filters="sRGB">
            <feFlood flood-opacity="0" result="BackgroundImageFix"/>
            <feBlend mode="normal" in="SourceGraphic" in2="BackgroundImageFix" result="shape"/>
            <feColorMatrix in="SourceAlpha" type="matrix" values="0 0 0 0 0 0 0 0 0 0 0 0 0 0 0 0 0 0 127 0" result="hardAlpha"/>
            <feOffset/>
            <feGaussianBlur stdDeviation="6"/>
            <feComposite in2="hardAlpha" operator="arithmetic" k2="-1" k3="1"/>
            <feColorMatrix type="matrix" values="0 0 0 0 1 0 0 0 0 1 0 0 0 0 1 0 0 0 0.2 0"/>
            <feBlend mode="normal" in2="shape" result="effect1_innerShadow_14_61049"/>
        </filter>
        <linearGradient id="paint0_linear_14_61049" x1="83.3333" y1="-80.1448" x2="83.3333" y2="166.667" gradientUnits="userSpaceOnUse">
            <stop stop-color="white"/>
            <stop offset="0.773658" stop-color="white" stop-opacity="0"/>
        </linearGradient>
        <linearGradient id="paint1_linear_14_61049" x1="83.3333" y1="-80.1448" x2="83.3333" y2="166.667" gradientUnits="userSpaceOnUse">
            <stop stop-color="white"/>
            <stop offset="0.773658" stop-color="white" stop-opacity="0"/>
        </linearGradient>
        <linearGradient id="paint2_linear_14_61049" x1="83.3333" y1="-80.1448" x2="83.3333" y2="166.667" gradientUnits="userSpaceOnUse">
            <stop stop-color="white"/>
            <stop offset="0.773658" stop-color="white" stop-opacity="0"/>
        </linearGradient>
        <linearGradient id="paint3_linear_14_61049" x1="83.3333" y1="-80.1448" x2="83.3333" y2="166.667" gradientUnits="userSpaceOnUse">
            <stop stop-color="white"/>
            <stop offset="0.773658" stop-color="white" stop-opacity="0"/>
        </linearGradient>
    </defs>
</svg>
