<svg width="138" height="138" viewBox="0 0 138 138" fill="none" xmlns="http://www.w3.org/2000/svg">
    <rect x="1" y="1" width="136" height="136" rx="68" fill="url(#paint0_linear_14_61204)"/>
    <rect x="1" y="1" width="136" height="136" rx="68" stroke="url(#paint1_linear_14_61204)" stroke-width="2"/>
    <rect x="17" y="17" width="104" height="104" rx="52" fill="url(#paint2_linear_14_61204)"/>
    <rect x="17" y="17" width="104" height="104" rx="52" stroke="url(#paint3_linear_14_61204)" stroke-width="2"/>
    <rect x="35" y="35" width="68" height="68" rx="34" fill="url(#paint4_linear_14_61204)"/>
    <rect x="35" y="35" width="68" height="68" rx="34" stroke="url(#paint5_linear_14_61204)" stroke-width="2"/>
    <path d="M69.0007 69.0007H76.084L83.1673 61.9173V54.834H76.084L69.0007 61.9173V69.0007Z" fill="white"/>
    <path d="M69.0007 83.1673H76.084L83.1673 76.084V69.0007H76.084L69.0007 76.084V83.1673Z" fill="white"/>
    <path d="M54.834 83.1673H61.9173L69.0007 76.084V69.0007H61.9173L54.834 76.084V83.1673Z" fill="white"/>
    <path d="M54.834 69.0007H61.9173L69.0007 61.9173V54.834H61.9173L54.834 61.9173V69.0007Z" fill="white"/>
    <defs>
        <linearGradient id="paint0_linear_14_61204" x1="69" y1="0" x2="69" y2="138" gradientUnits="userSpaceOnUse">
            <stop stop-color="#1A1A1A"/>
            <stop offset="0.565952" stop-color="#1A1A1A" stop-opacity="0"/>
        </linearGradient>
        <linearGradient id="paint1_linear_14_61204" x1="69" y1="0" x2="69" y2="138" gradientUnits="userSpaceOnUse">
            <stop stop-color="#333333"/>
            <stop offset="0.745602" stop-color="#333333" stop-opacity="0"/>
        </linearGradient>
        <linearGradient id="paint2_linear_14_61204" x1="69" y1="16" x2="69" y2="122" gradientUnits="userSpaceOnUse">
            <stop stop-color="#1A1A1A"/>
            <stop offset="0.658009" stop-color="#1A1A1A" stop-opacity="0"/>
        </linearGradient>
        <linearGradient id="paint3_linear_14_61204" x1="69" y1="16" x2="69" y2="122" gradientUnits="userSpaceOnUse">
            <stop stop-color="#333333"/>
            <stop offset="0.82384" stop-color="#333333" stop-opacity="0"/>
        </linearGradient>
        <linearGradient id="paint4_linear_14_61204" x1="69" y1="36" x2="69" y2="102" gradientUnits="userSpaceOnUse">
            <stop stop-color="#1A1A1A"/>
            <stop offset="1" stop-color="#1A1A1A" stop-opacity="0"/>
        </linearGradient>
        <linearGradient id="paint5_linear_14_61204" x1="69" y1="36" x2="69" y2="102" gradientUnits="userSpaceOnUse">
            <stop stop-color="#333333"/>
            <stop offset="0.84964" stop-color="#333333" stop-opacity="0"/>
        </linearGradient>
    </defs>
</svg>
